<svg xmlns="http://www.w3.org/2000/svg" viewBox="0 0 1240 500" font-family="Segoe UI, Roboto, Helvetica, Arial, sans-serif">
  <defs>
    <linearGradient id="gPlus" x1="0" y1="0" x2="0" y2="1">
      <stop offset="0%" stop-color="#3FCB86"/>
      <stop offset="100%" stop-color="#1F9E59"/>
    </linearGradient>
    <linearGradient id="gExcel" x1="0" y1="0" x2="0" y2="1">
      <stop offset="0%" stop-color="#74829A"/>
      <stop offset="100%" stop-color="#4A586A"/>
    </linearGradient>
  </defs>

  <rect x="0" y="0" width="1240" height="500" fill="#0E1828"/>

  <!-- Header -->
  <text x="44" y="52" fill="#EAF0F7" font-size="27" font-weight="700">Benchmark &#183; excel_plus vs excel</text>
  <text x="45" y="78" fill="#8A9BB4" font-size="14">Encode / decode time and peak memory at 1M and 5M cells. Same machine, lower is better.</text>

  <!-- Legend -->
  <rect x="980" y="40" width="14" height="14" rx="2" fill="url(#gPlus)"/>
  <text x="1001" y="52" fill="#CBD5E1" font-size="14" font-weight="600">excel_plus</text>
  <rect x="1110" y="40" width="14" height="14" rx="2" fill="url(#gExcel)"/>
  <text x="1131" y="52" fill="#CBD5E1" font-size="14" font-weight="600">excel</text>

  <!-- ===================== Panel 1: Encode time (s) ===================== -->
  <text x="249" y="110" text-anchor="middle" fill="#DCE4EF" font-size="15" font-weight="700">Encode time <tspan fill="#7E8EA6" font-weight="400">(seconds)</tspan></text>
  <!-- gridlines + ticks (0..60s) -->
  <line x1="94" y1="415" x2="404" y2="415" stroke="#2A3A52" stroke-width="1"/>
  <line x1="94" y1="322" x2="404" y2="322" stroke="#1E2C40" stroke-width="1"/>
  <line x1="94" y1="228" x2="404" y2="228" stroke="#1E2C40" stroke-width="1"/>
  <line x1="94" y1="135" x2="404" y2="135" stroke="#1E2C40" stroke-width="1"/>
  <text x="84" y="419" text-anchor="end" fill="#6E7E96" font-size="11">0</text>
  <text x="84" y="326" text-anchor="end" fill="#6E7E96" font-size="11">20</text>
  <text x="84" y="232" text-anchor="end" fill="#6E7E96" font-size="11">40</text>
  <text x="84" y="139" text-anchor="end" fill="#6E7E96" font-size="11">60</text>
  <!-- 1M -->
  <rect x="132" y="371" width="44" height="44" fill="url(#gExcel)"/>
  <rect x="186" y="408" width="44" height="7" fill="url(#gPlus)"/>
  <text x="154" y="364" text-anchor="middle" fill="#B9C4D6" font-size="12.5" font-weight="600">9.5 s</text>
  <text x="208" y="401" text-anchor="middle" fill="#6FE3A8" font-size="12.5" font-weight="700">1.5 s</text>
  <text x="181" y="436" text-anchor="middle" fill="#C3CCDA" font-size="13" font-weight="600">1M</text>
  <text x="181" y="454" text-anchor="middle" fill="#46C97F" font-size="12" font-weight="700">6.5&#215;</text>
  <!-- 5M -->
  <rect x="268" y="149" width="44" height="266" fill="url(#gExcel)"/>
  <rect x="322" y="380" width="44" height="35" fill="url(#gPlus)"/>
  <text x="290" y="142" text-anchor="middle" fill="#B9C4D6" font-size="12.5" font-weight="600">56.9 s</text>
  <text x="344" y="373" text-anchor="middle" fill="#6FE3A8" font-size="12.5" font-weight="700">7.6 s</text>
  <text x="317" y="436" text-anchor="middle" fill="#C3CCDA" font-size="13" font-weight="600">5M</text>
  <text x="317" y="454" text-anchor="middle" fill="#46C97F" font-size="12" font-weight="700">7.5&#215;</text>

  <!-- ===================== Panel 2: Decode time (s) ===================== -->
  <text x="645" y="110" text-anchor="middle" fill="#DCE4EF" font-size="15" font-weight="700">Decode time <tspan fill="#7E8EA6" font-weight="400">(seconds)</tspan></text>
  <line x1="490" y1="415" x2="800" y2="415" stroke="#2A3A52" stroke-width="1"/>
  <line x1="490" y1="322" x2="800" y2="322" stroke="#1E2C40" stroke-width="1"/>
  <line x1="490" y1="228" x2="800" y2="228" stroke="#1E2C40" stroke-width="1"/>
  <line x1="490" y1="135" x2="800" y2="135" stroke="#1E2C40" stroke-width="1"/>
  <text x="480" y="419" text-anchor="end" fill="#6E7E96" font-size="11">0</text>
  <text x="480" y="326" text-anchor="end" fill="#6E7E96" font-size="11">20</text>
  <text x="480" y="232" text-anchor="end" fill="#6E7E96" font-size="11">40</text>
  <text x="480" y="139" text-anchor="end" fill="#6E7E96" font-size="11">60</text>
  <!-- 1M -->
  <rect x="528" y="366" width="44" height="49" fill="url(#gExcel)"/>
  <rect x="582" y="400" width="44" height="15" fill="url(#gPlus)"/>
  <text x="550" y="359" text-anchor="middle" fill="#B9C4D6" font-size="12.5" font-weight="600">10.6 s</text>
  <text x="604" y="393" text-anchor="middle" fill="#6FE3A8" font-size="12.5" font-weight="700">3.2 s</text>
  <text x="577" y="436" text-anchor="middle" fill="#C3CCDA" font-size="13" font-weight="600">1M</text>
  <text x="577" y="454" text-anchor="middle" fill="#46C97F" font-size="12" font-weight="700">3.3&#215;</text>
  <!-- 5M -->
  <rect x="664" y="148" width="44" height="267" fill="url(#gExcel)"/>
  <rect x="718" y="333" width="44" height="82" fill="url(#gPlus)"/>
  <text x="686" y="141" text-anchor="middle" fill="#B9C4D6" font-size="12.5" font-weight="600">57.2 s</text>
  <text x="740" y="326" text-anchor="middle" fill="#6FE3A8" font-size="12.5" font-weight="700">17.5 s</text>
  <text x="713" y="436" text-anchor="middle" fill="#C3CCDA" font-size="13" font-weight="600">5M</text>
  <text x="713" y="454" text-anchor="middle" fill="#46C97F" font-size="12" font-weight="700">3.3&#215;</text>

  <!-- ===================== Panel 3: Peak memory (GB) ===================== -->
  <text x="1041" y="110" text-anchor="middle" fill="#DCE4EF" font-size="15" font-weight="700">Peak memory <tspan fill="#7E8EA6" font-weight="400">(GB)</tspan></text>
  <line x1="886" y1="415" x2="1196" y2="415" stroke="#2A3A52" stroke-width="1"/>
  <line x1="886" y1="335" x2="1196" y2="335" stroke="#1E2C40" stroke-width="1"/>
  <line x1="886" y1="255" x2="1196" y2="255" stroke="#1E2C40" stroke-width="1"/>
  <line x1="886" y1="175" x2="1196" y2="175" stroke="#1E2C40" stroke-width="1"/>
  <text x="876" y="419" text-anchor="end" fill="#6E7E96" font-size="11">0</text>
  <text x="876" y="339" text-anchor="end" fill="#6E7E96" font-size="11">4</text>
  <text x="876" y="259" text-anchor="end" fill="#6E7E96" font-size="11">8</text>
  <text x="876" y="179" text-anchor="end" fill="#6E7E96" font-size="11">12</text>
  <!-- 1M -->
  <rect x="924" y="365" width="44" height="50" fill="url(#gExcel)"/>
  <rect x="978" y="401" width="44" height="14" fill="url(#gPlus)"/>
  <text x="946" y="358" text-anchor="middle" fill="#B9C4D6" font-size="12.5" font-weight="600">2.5 GB</text>
  <text x="1000" y="394" text-anchor="middle" fill="#6FE3A8" font-size="12.5" font-weight="700">0.7 GB</text>
  <text x="973" y="436" text-anchor="middle" fill="#C3CCDA" font-size="13" font-weight="600">1M</text>
  <text x="973" y="454" text-anchor="middle" fill="#46C97F" font-size="12" font-weight="700">3.4&#215;</text>
  <!-- 5M -->
  <rect x="1060" y="174" width="44" height="241" fill="url(#gExcel)"/>
  <rect x="1114" y="362" width="44" height="53" fill="url(#gPlus)"/>
  <text x="1082" y="167" text-anchor="middle" fill="#B9C4D6" font-size="12.5" font-weight="600">12.0 GB</text>
  <text x="1136" y="355" text-anchor="middle" fill="#6FE3A8" font-size="12.5" font-weight="700">2.6 GB</text>
  <text x="1109" y="436" text-anchor="middle" fill="#C3CCDA" font-size="13" font-weight="600">5M</text>
  <text x="1109" y="454" text-anchor="middle" fill="#46C97F" font-size="12" font-weight="700">4.6&#215;</text>

  <!-- Footer -->
  <line x1="44" y1="474" x2="1196" y2="474" stroke="#1A2740" stroke-width="1"/>
  <text x="44" y="492" fill="#5E6E86" font-size="11.5">Multipliers show how much faster / leaner excel_plus is. Reproduce with benchmark/compare.</text>
  <text x="1196" y="492" text-anchor="end" fill="#5E6E86" font-size="11.5">1M = 20,000&#215;50 &#183; 5M = 100,000&#215;50</text>
</svg>
